<svg width="28" height="28" viewBox="0 0 28 28" fill="none" xmlns="http://www.w3.org/2000/svg">
<rect x="0.5" y="0.5" width="27" height="27" rx="13.5" stroke="#A2A4B9"/>
<g clip-path="url(#clip0_4141_4911)">
<path d="M8 8.8595C8 8.38475 8.3945 8 8.88125 8H19.1187C19.6055 8 20 8.38475 20 8.8595V19.1405C20 19.6152 19.6055 20 19.1187 20H8.88125C8.3945 20 8 19.6152 8 19.1405V8.8595ZM11.7072 18.0455V12.6267H9.9065V18.0455H11.7072ZM10.8073 11.8865C11.435 11.8865 11.8257 11.471 11.8257 10.9505C11.8145 10.4188 11.4358 10.0145 10.8193 10.0145C10.2027 10.0145 9.8 10.4195 9.8 10.9505C9.8 11.471 10.1908 11.8865 10.7952 11.8865H10.8073ZM14.4882 18.0455V15.0192C14.4882 14.8573 14.5002 14.6953 14.5483 14.5798C14.678 14.2565 14.9743 13.9212 15.4722 13.9212C16.124 13.9212 16.3842 14.4178 16.3842 15.1468V18.0455H18.185V14.9375C18.185 13.2725 17.297 12.4985 16.112 12.4985C15.1565 12.4985 14.7283 13.0235 14.4882 13.3932V13.412H14.4763L14.4882 13.3932V12.6267H12.6883C12.7108 13.1353 12.6883 18.0455 12.6883 18.0455H14.4882Z" fill="white"/>
</g>
<defs>
<clipPath id="clip0_4141_4911">
<rect width="12" height="12" fill="white" transform="translate(8 8)"/>
</clipPath>
</defs>
</svg>
